HIERARCHY
ROOT Hip
{
	OFFSET 0.947194 -2.016911 0.232189
	CHANNELS 6 Xposition Yposition Zposition Xrotation Yrotation Zrotation
	JOINT LowerSpine
	{
		OFFSET -0.002640 0.134975 0.270626
		CHANNELS 6 Xposition Yposition Zposition Xrotation Yrotation Zrotation
		JOINT MiddleSpine
		{
			OFFSET -0.000263 -0.028711 0.235674
			CHANNELS 3 Xrotation Yrotation Zrotation
			JOINT Chest
			{
				OFFSET -0.001348 0.036852 0.296998
				CHANNELS 3 Xrotation Yrotation Zrotation
				JOINT Neck
				{
					OFFSET -0.001347 -0.036708 0.660374
					CHANNELS 6 Xposition Yposition Zposition Xrotation Yrotation Zrotation
					JOINT Head
					{
						OFFSET 0.000767 -0.128981 0.364873
						CHANNELS 3 Xrotation Yrotation Zrotation
						End Site
						{
							OFFSET -0.000072 -0.005574 0.053362
						}
					}
				}
				JOINT LClavicle
				{
					OFFSET 0.061721 -0.242713 0.621989
					CHANNELS 6 Xposition Yposition Zposition Xrotation Yrotation Zrotation
					JOINT LShoulder
					{
						OFFSET 0.348743 0.145790 0.103251
						CHANNELS 3 Xrotation Yrotation Zrotation
						JOINT LForearm
						{
							OFFSET 0.828321 0.018910 -0.000066
							CHANNELS 3 Xrotation Yrotation Zrotation
							JOINT LHand
							{
								OFFSET 0.691012 0.013602 0.004250
								CHANNELS 3 Xrotation Yrotation Zrotation
								JOINT LFinger1
								{
									OFFSET 0.268847 -0.072196 0.018600
									CHANNELS 6 Xposition Yposition Zposition Xrotation Yrotation Zrotation
									JOINT LFinger11
									{
										OFFSET 0.100477 -0.014397 -0.025392
										CHANNELS 3 Xrotation Yrotation Zrotation
										JOINT LFinger12
										{
											OFFSET 0.068594 -0.009833 -0.017338
											CHANNELS 3 Xrotation Yrotation Zrotation
											End Site
											{
												OFFSET 0.050939 -0.006386 -0.015590
											}
										}
									}
								}
								JOINT LFinger2
								{
									OFFSET 0.271882 -0.004680 0.027263
									CHANNELS 6 Xposition Yposition Zposition Xrotation Yrotation Zrotation
									JOINT LFinger21
									{
										OFFSET 0.123862 0.002427 0.000746
										CHANNELS 3 Xrotation Yrotation Zrotation
										JOINT LFinger22
										{
											OFFSET 0.068657 0.001357 0.000434
											CHANNELS 3 Xrotation Yrotation Zrotation
											End Site
											{
												OFFSET 0.053522 0.000953 -0.003625
											}
										}
									}
								}
								JOINT LFinger3
								{
									OFFSET 0.256733 0.063030 0.023248
									CHANNELS 6 Xposition Yposition Zposition Xrotation Yrotation Zrotation
									JOINT LFinger31
									{
										OFFSET 0.112314 0.009006 -0.004839
										CHANNELS 3 Xrotation Yrotation Zrotation
										JOINT LFinger32
										{
											OFFSET 0.064001 0.005143 -0.002735
											CHANNELS 3 Xrotation Yrotation Zrotation
											End Site
											{
												OFFSET 0.053164 0.003732 -0.006186
											}
										}
									}
								}
								JOINT LFinger4
								{
									OFFSET 0.237614 0.109645 -0.009642
									CHANNELS 6 Xposition Yposition Zposition Xrotation Yrotation Zrotation
									JOINT LFinger41
									{
										OFFSET 0.068895 0.021065 -0.012771
										CHANNELS 3 Xrotation Yrotation Zrotation
										JOINT LFinger42
										{
											OFFSET 0.050521 0.015455 -0.009349
											CHANNELS 3 Xrotation Yrotation Zrotation
											End Site
											{
												OFFSET 0.050370 0.013290 -0.012838
											}
										}
									}
								}
								JOINT LFinger0
								{
									OFFSET 0.056073 -0.038007 -0.044785
									CHANNELS 6 Xposition Yposition Zposition Xrotation Yrotation Zrotation
									JOINT LFinger01
									{
										OFFSET 0.104314 -0.073613 -0.039264
										CHANNELS 3 Xrotation Yrotation Zrotation
										JOINT LFinger02
										{
											OFFSET 0.068660 -0.046056 -0.027680
											CHANNELS 3 Xrotation Yrotation Zrotation
											End Site
											{
												OFFSET 0.043017 -0.027396 -0.016661
											}
										}
									}
								}
							}
						}
					}
				}
				JOINT RClavicle
				{
					OFFSET -0.058437 -0.244385 0.621651
					CHANNELS 6 Xposition Yposition Zposition Xrotation Yrotation Zrotation
					JOINT RShoulder
					{
						OFFSET -0.353303 0.136039 0.101295
						CHANNELS 3 Xrotation Yrotation Zrotation
						JOINT RForearm
						{
							OFFSET -0.828513 -0.004156 -0.004727
							CHANNELS 3 Xrotation Yrotation Zrotation
							JOINT RHand
							{
								OFFSET -0.691136 -0.005641 0.000363
								CHANNELS 3 Xrotation Yrotation Zrotation
								JOINT RFinger1
								{
									OFFSET -0.266837 -0.079653 0.017097
									CHANNELS 6 Xposition Yposition Zposition Xrotation Yrotation Zrotation
									JOINT RFinger11
									{
										OFFSET -0.099893 -0.017186 -0.025956
										CHANNELS 3 Xrotation Yrotation Zrotation
										JOINT RFinger12
										{
											OFFSET -0.068195 -0.011737 -0.017728
											CHANNELS 3 Xrotation Yrotation Zrotation
											End Site
											{
												OFFSET -0.050653 -0.007799 -0.015876
											}
										}
									}
								}
								JOINT RFinger2
								{
									OFFSET -0.271795 -0.012252 0.025734
									CHANNELS 6 Xposition Yposition Zposition Xrotation Yrotation Zrotation
									JOINT RFinger21
									{
										OFFSET -0.123884 -0.001022 0.000052
										CHANNELS 3 Xrotation Yrotation Zrotation
										JOINT RFinger22
										{
											OFFSET -0.068669 -0.000553 0.000048
											CHANNELS 3 Xrotation Yrotation Zrotation
											End Site
											{
												OFFSET -0.053506 -0.000537 -0.003926
											}
										}
									}
								}
								JOINT RFinger3
								{
									OFFSET -0.258516 0.055856 0.021802
									CHANNELS 6 Xposition Yposition Zposition Xrotation Yrotation Zrotation
									JOINT RFinger31
									{
										OFFSET -0.112492 0.005877 -0.005471
										CHANNELS 3 Xrotation Yrotation Zrotation
										JOINT RFinger32
										{
											OFFSET -0.064106 0.003360 -0.003096
											CHANNELS 3 Xrotation Yrotation Zrotation
											End Site
											{
												OFFSET -0.053211 0.002251 -0.006485
											}
										}
									}
								}
								JOINT RFinger4
								{
									OFFSET -0.240517 0.102988 -0.010987
									CHANNELS 6 Xposition Yposition Zposition Xrotation Yrotation Zrotation
									JOINT RFinger41
									{
										OFFSET -0.069382 0.019140 -0.013160
										CHANNELS 3 Xrotation Yrotation Zrotation
										JOINT RFinger42
										{
											OFFSET -0.050879 0.014043 -0.009631
											CHANNELS 3 Xrotation Yrotation Zrotation
											End Site
											{
												OFFSET -0.050647 0.011884 -0.013123
											}
										}
									}
								}
								JOINT RFinger0
								{
									OFFSET -0.054740 -0.039546 -0.045093
									CHANNELS 6 Xposition Yposition Zposition Xrotation Yrotation Zrotation
									JOINT RFinger01
									{
										OFFSET -0.102002 -0.076488 -0.039850
										CHANNELS 3 Xrotation Yrotation Zrotation
										JOINT RFinger02
										{
											OFFSET -0.067194 -0.047947 -0.028059
											CHANNELS 3 Xrotation Yrotation Zrotation
											End Site
											{
												OFFSET -0.042143 -0.028581 -0.016901
											}
										}
									}
								}
							}
						}
					}
				}
			}
		}
	}
	JOINT RThigh
	{
		OFFSET -0.307793 0.012143 0.118149
		CHANNELS 6 Xposition Yposition Zposition Xrotation Yrotation Zrotation
		JOINT RShin
		{
			OFFSET -0.020101 0.089378 -1.205898
			CHANNELS 3 Xrotation Yrotation Zrotation
			JOINT RFoot
			{
				OFFSET 0.002104 0.088068 -1.184060
				CHANNELS 3 Xrotation Yrotation Zrotation
				JOINT RToe
				{
					OFFSET 0.004077 -0.262431 -0.150369
					CHANNELS 3 Xrotation Yrotation Zrotation
					End Site
					{
						OFFSET 0.000756 -0.053500 -0.003978
					}
				}
			}
		}
	}
	JOINT LThigh
	{
		OFFSET 0.306663 0.020697 0.119886
		CHANNELS 6 Xposition Yposition Zposition Xrotation Yrotation Zrotation
		JOINT LShin
		{
			OFFSET 0.024387 0.089997 -1.205782
			CHANNELS 3 Xrotation Yrotation Zrotation
			JOINT LFoot
			{
				OFFSET 0.002104 0.088068 -1.184059
				CHANNELS 3 Xrotation Yrotation Zrotation
				JOINT LToe
				{
					OFFSET 0.004077 -0.262433 -0.150372
					CHANNELS 3 Xrotation Yrotation Zrotation
					End Site
					{
						OFFSET 0.000756 -0.053500 -0.003978
					}
				}
			}
		}
	}
}
MOTION
Frames: 4
Frame Time: 0.041667
0.515721 -4.057612 3.125063 171.372807 -7.264333 -4.841257 -0.002641 0.134975 0.270627 0.005946 0.589746 0.156213 -0.846209 2.432280 1.049798 -3.166771 6.381941 3.196981 -0.001347 -0.036708 0.660373 -52.224887 -1.809457 -1.703879 -4.377140 1.207606 0.166255 0.061721 -0.242713 0.621989 -3.118985 -21.754863 -1.757367 -41.280239 -48.561897 -57.228301 -0.000798 -0.042217 0.567472 4.991825 -91.206091 72.817159 0.268848 -0.072195 0.018600 0.000001 -0.000004 0.000003 -0.000001 -0.000005 0.000005 -0.000010 -0.000020 -0.000006 0.271882 -0.004680 0.027263 0.000004 -0.000002 0.000007 0.000003 0.000001 -0.000001 0.000006 -0.000000 0.000005 0.256733 0.063030 0.023247 0.000003 -0.000007 0.000007 -0.000003 0.000003 -0.000004 0.000004 -0.000002 0.000001 0.237614 0.109645 -0.009642 -0.000004 0.000001 0.000006 0.000005 0.000002 0.000002 -0.000006 0.000013 -0.000000 0.056072 -0.038006 -0.044785 0.000009 0.000000 0.000003 0.000013 -0.000002 -0.000007 -0.000005 -0.000023 0.000015 -0.058437 -0.244386 0.621650 0.516598 24.095709 -12.309481 -31.250253 41.923500 47.143369 0.001909 0.061510 -0.828209 -84.098528 88.889332 4.007541 -0.266837 -0.079653 0.017097 0.000018 -0.000010 -0.000024 0.000011 0.000003 0.000010 0.000009 -0.000001 -0.000003 -0.271795 -0.012252 0.025733 0.000009 0.000000 -0.000013 0.000010 0.000001 -0.000001 -0.000002 -0.000011 -0.000008 -0.258515 0.055856 0.021802 0.000008 0.000005 -0.000010 0.000007 0.000001 -0.000010 0.000000 0.000006 0.000008 -0.240517 0.102989 -0.010987 0.000009 -0.000006 -0.000019 0.000006 0.000004 -0.000009 -0.000002 0.000003 0.000008 -0.054741 -0.039547 -0.045093 0.000005 -0.000001 -0.000024 -0.000003 0.000030 -0.000025 -0.000014 0.000002 -0.000017 -0.350115 0.162620 0.177431 -12.985411 5.792909 10.169335 23.538830 0.331980 -0.002001 0.006466 -3.709639 6.470198 -0.000005 0.000010 -0.000007 0.306149 0.020609 0.251637 -143.193809 -3.966111 -0.205024 135.242595 0.837246 -1.250553 1.129377 0.831915 -1.456474 -0.000005 0.000009 -0.000006 
0.515721 -4.057612 3.125063 171.372807 -7.264333 -4.841257 -0.002641 0.134975 0.270627 0.005946 0.589746 0.156213 -0.846209 2.432280 1.049798 -3.166771 6.381941 3.196981 -0.001347 -0.036708 0.660373 -52.224887 -1.809457 -1.703879 -4.377140 1.207606 0.166255 0.061721 -0.242713 0.621989 -3.118985 -21.754863 -1.757367 -41.280239 -48.561897 -57.228301 -0.000798 -0.042217 0.567472 4.991825 -91.206091 72.817159 0.268848 -0.072195 0.018600 0.000001 -0.000004 0.000003 -0.000001 -0.000005 0.000005 -0.000010 -0.000020 -0.000006 0.271882 -0.004680 0.027263 0.000004 -0.000002 0.000007 0.000003 0.000001 -0.000001 0.000006 -0.000000 0.000005 0.256733 0.063030 0.023247 0.000003 -0.000007 0.000007 -0.000003 0.000003 -0.000004 0.000004 -0.000002 0.000001 0.237614 0.109645 -0.009642 -0.000004 0.000001 0.000006 0.000005 0.000002 0.000002 -0.000006 0.000013 -0.000000 0.056072 -0.038006 -0.044785 0.000009 0.000000 0.000003 0.000013 -0.000002 -0.000007 -0.000005 -0.000023 0.000015 -0.058437 -0.244386 0.621650 0.516598 24.095709 -12.309481 -31.250253 41.923500 47.143369 0.001909 0.061510 -0.828209 -84.098528 88.889332 4.007541 -0.266837 -0.079653 0.017097 0.000018 -0.000010 -0.000024 0.000011 0.000003 0.000010 0.000009 -0.000001 -0.000003 -0.271795 -0.012252 0.025733 0.000009 0.000000 -0.000013 0.000010 0.000001 -0.000001 -0.000002 -0.000011 -0.000008 -0.258515 0.055856 0.021802 0.000008 0.000005 -0.000010 0.000007 0.000001 -0.000010 0.000000 0.000006 0.000008 -0.240517 0.102989 -0.010987 0.000009 -0.000006 -0.000019 0.000006 0.000004 -0.000009 -0.000002 0.000003 0.000008 -0.054741 -0.039547 -0.045093 0.000005 -0.000001 -0.000024 -0.000003 0.000030 -0.000025 -0.000014 0.000002 -0.000017 -0.350115 0.162620 0.177431 -12.985411 5.792909 10.169335 23.538830 0.331980 -0.002001 0.006466 -3.709639 6.470198 -0.000005 0.000010 -0.000007 0.306149 0.020609 0.251637 -143.193809 -3.966111 -0.205024 135.242595 0.837246 -1.250553 1.129377 0.831915 -1.456474 -0.000005 0.000009 -0.000006 
0.520683 -4.055910 3.124668 171.210617 -7.768669 -4.953648 -0.002641 0.134975 0.270626 0.001431 0.529962 0.132726 -0.813814 2.509098 1.053141 -3.022684 6.779918 3.283893 -0.001347 -0.036708 0.660373 -52.209946 -1.810191 -1.704203 -4.417817 1.196501 0.165096 0.061721 -0.242714 0.621989 -3.035631 -21.869762 -1.764049 -40.606100 -48.756011 -56.227736 0.000646 -0.021244 0.256793 4.741717 -91.850915 72.557946 0.268848 -0.072195 0.018600 0.000001 -0.000003 0.000001 -0.000002 -0.000006 0.000005 -0.000010 -0.000016 -0.000005 0.271882 -0.004680 0.027263 0.000004 -0.000002 0.000005 0.000003 0.000001 -0.000000 0.000006 0.000000 0.000007 0.256734 0.063030 0.023248 0.000003 -0.000007 0.000004 -0.000003 0.000003 -0.000004 0.000004 0.000000 0.000002 0.237615 0.109645 -0.009642 -0.000003 0.000001 0.000006 0.000004 0.000002 0.000000 -0.000006 0.000013 0.000001 0.056073 -0.038007 -0.044785 0.000005 -0.000003 0.000004 0.000013 -0.000004 -0.000006 -0.000006 -0.000014 0.000008 -0.058437 -0.244386 0.621650 0.518318 24.063171 -12.364322 -31.837404 41.901438 47.823922 0.001973 0.098009 -1.319403 -48.182026 88.599459 -31.905726 -0.266837 -0.079653 0.017097 0.000016 -0.000008 -0.000024 0.000008 0.000003 0.000011 0.000010 -0.000007 -0.000002 -0.271796 -0.012252 0.025734 0.000009 -0.000001 -0.000012 0.000011 0.000002 -0.000001 -0.000002 -0.000011 -0.000008 -0.258516 0.055856 0.021802 0.000006 0.000005 -0.000011 0.000008 0.000001 -0.000010 -0.000001 0.000007 0.000009 -0.240517 0.102988 -0.010987 0.000009 -0.000005 -0.000016 0.000007 0.000003 -0.000012 -0.000000 0.000005 0.000009 -0.054742 -0.039547 -0.045093 0.000003 -0.000001 -0.000022 -0.000000 0.000035 -0.000024 -0.000014 0.000002 -0.000015 -0.350115 0.162619 0.177430 -13.279985 5.808527 9.968121 25.136259 0.354095 -0.007072 -0.945914 -1.253744 2.160779 0.000000 0.000010 -0.000008 0.306150 0.020608 0.251637 -143.044174 -6.193607 2.137498 127.776338 0.890358 -1.158863 1.421704 0.487221 -0.844408 -0.000005 0.000009 -0.000006 
0.525466 -4.052771 3.123039 170.939814 -8.186166 -5.028412 -0.002641 0.134975 0.270627 -0.000475 0.480472 0.111207 -0.769983 2.600948 1.058305 -2.884793 7.150889 3.362968 -0.001347 -0.036708 0.660373 -52.204256 -1.823856 -1.717992 -4.466008 1.180632 0.163219 0.061721 -0.242714 0.621989 -2.944588 -21.977571 -1.769425 -40.356002 -48.743806 -55.983348 0.000147 -0.034310 0.434004 4.633336 -92.422712 72.441540 0.268848 -0.072194 0.018600 0.000002 -0.000002 0.000002 -0.000000 -0.000002 0.000006 -0.000010 -0.000015 -0.000007 0.271882 -0.004680 0.027263 0.000002 -0.000002 0.000006 0.000003 -0.000000 -0.000002 0.000006 -0.000000 0.000005 0.256733 0.063030 0.023248 0.000002 -0.000007 0.000006 -0.000003 0.000003 -0.000004 0.000004 -0.000002 0.000002 0.237615 0.109645 -0.009642 -0.000005 -0.000000 0.000002 0.000005 0.000000 -0.000001 -0.000009 0.000015 0.000001 0.056073 -0.038006 -0.044785 0.000004 -0.000002 0.000004 0.000018 -0.000004 -0.000002 -0.000004 -0.000020 0.000013 -0.058437 -0.244386 0.621650 0.521970 24.019100 -12.453258 -32.245405 41.646040 48.512908 0.002348 0.134415 -1.852925 -27.441158 87.887268 -52.642570 -0.266836 -0.079653 0.017097 0.000018 -0.000006 -0.000023 0.000013 0.000001 0.000010 0.000013 -0.000001 -0.000002 -0.271796 -0.012252 0.025734 0.000009 -0.000000 -0.000012 0.000011 0.000000 -0.000001 -0.000005 -0.000012 -0.000007 -0.258515 0.055856 0.021802 0.000008 0.000005 -0.000009 0.000008 0.000001 -0.000010 -0.000001 0.000007 0.000009 -0.240517 0.102988 -0.010987 0.000008 -0.000005 -0.000019 0.000006 0.000003 -0.000013 0.000000 0.000005 0.000006 -0.054741 -0.039547 -0.045093 0.000006 -0.000003 -0.000020 -0.000002 0.000033 -0.000029 -0.000019 0.000005 -0.000017 -0.350115 0.162619 0.177431 -13.230135 6.187182 9.850932 26.172260 0.368356 -0.010689 -0.331990 -1.022101 1.729745 -0.000005 0.000010 -0.000007 0.306149 0.020608 0.251637 -143.030213 -8.369392 4.834591 118.095678 0.940709 -1.031101 1.184713 0.340215 -0.580436 -0.000005 0.000009 -0.000006 
